<svg width="24"
		 height="24"
		 viewBox="0 0 24 24"
		 fill="none"
		 xmlns="http://www.w3.org/2000/svg">
	<g id="Box">
		<path id="&#244;&#128;&#144;&#154;"
					d="M2.79279 18.3764L11.1907 23.0746C11.7372 23.3794 12.2523 23.3794 12.7988 23.0746L21.2072 18.3764C22.0796 17.8719 22.5 17.3674 22.5 16.1167V7.44548C22.5 6.58362 22.1426 6.03708 21.4384 5.62717L13.5871 1.21275C12.536 0.613653 11.464 0.613653 10.4129 1.21275L2.56156 5.62717C1.84685 6.03708 1.5 6.58362 1.5 7.44548V16.1167C1.5 17.3674 1.92042 17.8719 2.79279 18.3764ZM17.024 8.61215L8.38438 3.80885L11.012 2.33738C11.6847 1.959 12.3153 1.94849 12.988 2.33738L20.5976 6.62566L17.024 8.61215ZM12 11.4079L3.39189 6.62566L7.1021 4.53407L15.7207 9.33738L12 11.4079ZM3.58108 17.3464C2.92943 16.9785 2.76126 16.6527 2.76126 16.0641V7.72927L11.3589 12.5431V21.6767L3.58108 17.3464ZM20.4189 17.3464L12.6411 21.6767V12.5431L21.2387 7.72927V16.0641C21.2387 16.6527 21.0706 16.9785 20.4189 17.3464Z"
					fill="currentColor" />
	</g>
</svg>